<svg width="33" height="32" viewBox="0 0 33 32" fill="none" xmlns="http://www.w3.org/2000/svg">
<g clip-path="url(#clip0_1_248)">
<path d="M26.3197 0H6.26176C2.80634 0 0 2.75625 0 6.15V25.85C0 29.2437 2.80634 32 6.26176 32H26.3197C29.7752 32 32.5815 29.2437 32.5815 25.85V6.15C32.5815 2.75625 29.7752 0 26.3197 0ZM24.0098 23.5812C23.3607 24.2188 22.3171 24.2188 21.668 23.5812L15.1199 17.15C14.808 16.8438 14.6362 16.4312 14.6362 16V7.275C14.6362 6.375 15.3744 5.65 16.2908 5.65C17.2071 5.65 17.9453 6.375 17.9453 7.275V15.325L24.0098 21.2812C24.6525 21.9125 24.6525 22.9437 24.0098 23.5812Z" fill="white"/>
</g>
<defs>
<clipPath id="clip0_1_248">
<rect width="32.5815" height="32" fill="white"/>
</clipPath>
</defs>
</svg>
