<svg width="359" height="55" viewBox="0 0 359 55" fill="none" xmlns="http://www.w3.org/2000/svg">
<g clip-path="url(#clip0_26_154)">
<path d="M55.5875 25.2584C55.1002 25.2584 54.6304 25.1851 54.18 25.0295C53.7286 24.883 53.3786 24.6916 53.1216 24.4536L53.4615 23.7393C53.7102 23.9499 54.0234 24.1331 54.4001 24.2704C54.7777 24.4077 55.1738 24.481 55.5874 24.481C55.9651 24.481 56.2681 24.4352 56.4984 24.3528C56.7287 24.2704 56.9038 24.1514 57.0143 23.9957C57.1248 23.8492 57.18 23.6853 57.18 23.4931C57.18 23.2733 57.1063 23.0993 56.9682 22.962C56.8208 22.8247 56.6366 22.7157 56.4063 22.6333C56.177 22.5509 55.919 22.4868 55.6426 22.4227C55.3663 22.3586 55.0909 22.2854 54.8145 22.203C54.529 22.1206 54.2803 22.0199 54.0509 21.8917C53.8206 21.7635 53.6271 21.5904 53.489 21.3707C53.3508 21.1601 53.2771 20.8763 53.2771 20.5384C53.2771 20.2088 53.3692 19.9066 53.5442 19.6237C53.7193 19.349 53.9864 19.1292 54.3539 18.9553C54.7132 18.7914 55.1829 18.709 55.7439 18.709C56.1216 18.709 56.4891 18.7547 56.8576 18.8546C57.2251 18.9553 57.5476 19.0926 57.8147 19.2758L57.5107 20.0073C57.2344 19.8242 56.9405 19.6878 56.6365 19.6054C56.3326 19.523 56.0295 19.4864 55.744 19.4864C55.3847 19.4864 55.0817 19.5321 54.8514 19.6237C54.6211 19.7153 54.4461 19.8334 54.3447 19.989C54.2342 20.1447 54.1799 20.3095 54.1799 20.5018C54.1799 20.7307 54.2526 20.9037 54.4 21.0411C54.5382 21.1785 54.7316 21.2792 54.9619 21.3616C55.1922 21.444 55.44 21.5081 55.7164 21.5722C55.9927 21.6362 56.2681 21.7095 56.5537 21.791C56.83 21.8734 57.0879 21.9742 57.3173 22.1023C57.5476 22.2305 57.7318 22.4045 57.87 22.6151C58.0082 22.8248 58.0819 23.0995 58.0819 23.4382C58.0819 23.7578 57.9897 24.06 57.8147 24.3346C57.6397 24.6185 57.3633 24.8373 56.9958 25.0021C56.6182 25.1761 56.1493 25.2585 55.5874 25.2585L55.5875 25.2584Z" fill="white"/>
<path d="M59.9896 21.5446H63.303V22.322H59.9896V21.5446ZM60.0725 24.3895H63.8271V25.1852H59.1523V18.7822H63.6981V19.5779H60.0725V24.3895Z" fill="white"/>
<path d="M67.917 25.2585C67.4297 25.2585 66.9784 25.1761 66.5639 25.0113C66.1503 24.8556 65.791 24.6276 65.488 24.3254C65.184 24.0324 64.9445 23.6854 64.7695 23.2917C64.5944 22.898 64.5125 22.4594 64.5125 21.9832C64.5125 21.508 64.5944 21.0685 64.7695 20.6757C64.9445 20.282 65.184 19.9341 65.488 19.6329C65.791 19.3399 66.1595 19.1109 66.5731 18.9461C66.9876 18.7914 67.439 18.709 67.9263 18.709C68.4237 18.709 68.8833 18.7914 69.3071 18.9553C69.7207 19.1292 70.0799 19.3765 70.3747 19.7061L69.776 20.282C69.5272 20.0257 69.2519 19.8334 68.9478 19.7061C68.6439 19.5871 68.3132 19.523 67.9631 19.523C67.6039 19.523 67.264 19.587 66.96 19.7061C66.6468 19.8242 66.3806 19.9982 66.1503 20.218C65.92 20.4377 65.745 20.6941 65.6252 20.9953C65.4972 21.2975 65.4327 21.6271 65.4327 21.9833C65.4327 22.3404 65.4972 22.6609 65.6252 22.9621C65.745 23.2642 65.92 23.5298 66.1503 23.7486C66.3806 23.9684 66.6468 24.1423 66.96 24.2614C67.264 24.3804 67.6039 24.4445 67.9631 24.4445C68.3132 24.4445 68.6438 24.3804 68.9478 24.2522C69.2518 24.1332 69.5272 23.9409 69.776 23.6763L70.3747 24.2522C70.0799 24.5818 69.7207 24.8281 69.3071 25.0021C68.8833 25.1761 68.4237 25.2585 67.9171 25.2585L67.917 25.2585Z" fill="white"/>
<path d="M71.4165 25.1852V18.7822H73.9284C74.4904 18.7822 74.9776 18.8729 75.3737 19.0468C75.7698 19.2208 76.0821 19.4772 76.2939 19.815C76.5058 20.1538 76.6163 20.5475 76.6163 21.0136C76.6163 21.4806 76.5058 21.8734 76.2939 22.203C76.0821 22.5418 75.7698 22.7972 75.3737 22.9712C74.9776 23.1452 74.4904 23.2368 73.9284 23.2368H71.9231L72.3367 22.8156V25.1852H71.4165ZM75.7237 25.1852L74.085 22.8613H75.0697L76.7269 25.1852H75.7237ZM72.3367 22.9071L71.9231 22.4594H73.9008C74.4903 22.4594 74.9408 22.3312 75.2447 22.0749C75.5487 21.8276 75.6961 21.4714 75.6961 21.0136C75.6961 20.5568 75.5487 20.1997 75.2447 19.9524C74.9408 19.7061 74.4903 19.5779 73.9008 19.5779H71.9231L72.3367 19.1201V22.9072V22.9071Z" fill="white"/>
<path d="M78.6714 21.5446H81.9848V22.322H78.6714V21.5446ZM78.7543 24.3895H82.5089V25.1852H77.834V18.7822H82.3799V19.5779H78.7542V24.3895H78.7543Z" fill="white"/>
<path d="M85.007 25.1852V19.5779H82.7981V18.7822H88.127V19.5779H85.9181V25.1852H85.007Z" fill="white"/>
<path d="M87.5586 25.1852L90.4759 18.7822H91.3869L94.3134 25.1852H93.3471L90.743 19.2941H91.1105L88.5064 25.1852H87.5586H87.5586ZM88.8012 23.5847L89.049 22.8521H92.6756L92.9427 23.5847H88.8012Z" fill="white"/>
<path d="M94.9969 25.1852V18.7822H97.5088C98.0708 18.7822 98.558 18.8729 98.9541 19.0468C99.3502 19.2208 99.6625 19.4772 99.8744 19.815C100.086 20.1538 100.197 20.5475 100.197 21.0136C100.197 21.4806 100.086 21.8734 99.8744 22.203C99.6625 22.5418 99.3502 22.7972 98.9541 22.9712C98.558 23.1452 98.0708 23.2368 97.5088 23.2368H95.5035L95.9171 22.8156V25.1852H94.9969ZM99.3041 25.1852L97.6654 22.8613H98.6501L100.307 25.1852H99.3041ZM95.9171 22.9071L95.5035 22.4594H97.4812C98.0707 22.4594 98.5212 22.3312 98.8251 22.0749C99.1291 21.8276 99.2765 21.4714 99.2765 21.0136C99.2765 20.5568 99.1291 20.1997 98.8251 19.9524C98.5212 19.7061 98.0707 19.5779 97.4812 19.5779H95.5035L95.9171 19.1201V22.9072V22.9071Z" fill="white"/>
<path d="M101.414 25.1852V18.7822H102.335V25.1852H101.414Z" fill="white"/>
<path d="M103.019 25.1852L105.936 18.7822H106.847L109.774 25.1852H108.808L106.204 19.2941H106.571L103.967 25.1852H103.019H103.019ZM104.262 23.5847L104.51 22.8521H108.136L108.403 23.5847H104.262Z" fill="white"/>
<path d="M112.934 25.1852V18.7822H115.649C116.34 18.7822 116.947 18.9187 117.471 19.1842C117.996 19.4497 118.4 19.8242 118.695 20.3095C118.981 20.7939 119.128 21.3524 119.128 21.9832C119.128 22.615 118.981 23.1726 118.695 23.6579C118.4 24.1423 117.996 24.5177 117.471 24.7823C116.947 25.0479 116.34 25.1852 115.649 25.1852H112.934ZM113.855 24.3895H115.594C116.128 24.3895 116.588 24.2888 116.984 24.0874C117.371 23.886 117.674 23.603 117.885 23.2368C118.097 22.8797 118.208 22.4594 118.208 21.9833C118.208 21.4989 118.097 21.0777 117.885 20.7215C117.674 20.3645 117.371 20.0806 116.984 19.8792C116.588 19.6786 116.128 19.5779 115.594 19.5779H113.855V24.3896V24.3895Z" fill="white"/>
<path d="M119.195 25.1852L122.113 18.7822H123.024L125.95 25.1852H124.984L122.38 19.2941H122.747L120.143 25.1852H119.195H119.195ZM120.438 23.5847L120.686 22.8521H124.312L124.579 23.5847H120.438Z" fill="white"/>
<path d="M2.25838e-05 36.1822L2.87217 29.7783H4.34414L7.22548 36.1822H5.66047L3.30415 30.5282H3.89368L1.52817 36.1822H-3.05176e-05H2.25838e-05ZM1.4361 34.8097L1.83128 33.6844H5.14555L5.54992 34.8097H1.43604H1.4361Z" fill="white"/>
<path d="M10.6301 36.2918C10.1207 36.2918 9.65276 36.2112 9.22625 36.0491C8.79883 35.888 8.4276 35.6572 8.11165 35.3587C7.79569 35.0593 7.54973 34.7086 7.37476 34.3066C7.20064 33.9037 7.11313 33.4615 7.11313 32.9799C7.11313 32.4983 7.20064 32.056 7.37476 31.6531C7.54978 31.2502 7.79665 30.8995 8.11627 30.601C8.43498 30.3016 8.80988 30.0718 9.24005 29.9097C9.66932 29.7486 10.1419 29.668 10.6577 29.668C11.2279 29.668 11.7419 29.7623 12.1988 29.9509C12.6565 30.1404 13.0416 30.4151 13.3539 30.7749L12.3968 31.653C12.1638 31.4095 11.9095 31.2273 11.6332 31.1083C11.3568 30.9901 11.0565 30.9307 10.7314 30.9307C10.4182 30.9307 10.1326 30.9792 9.87472 31.0762C9.61771 31.1742 9.39479 31.3143 9.20686 31.4974C9.01984 31.6805 8.87525 31.8966 8.77393 32.1475C8.67261 32.3975 8.62195 32.6749 8.62195 32.9798C8.62195 33.2783 8.67261 33.553 8.77393 33.803C8.8753 34.0529 9.01989 34.2708 9.20686 34.4576C9.39479 34.6435 9.61585 34.7854 9.8701 34.8825C10.1253 34.9805 10.4053 35.029 10.713 35.029C11.0068 35.029 11.2942 34.9814 11.5733 34.887C11.8524 34.7927 12.1242 34.6325 12.3876 34.4072L13.2342 35.4776C12.885 35.7395 12.4779 35.941 12.0146 36.081C11.5512 36.2211 11.0898 36.2916 10.6301 36.2916V36.2918ZM11.8727 35.2855V32.8792H13.2342V35.4777L11.8727 35.2854V35.2855Z" fill="white"/>
<path d="M14.3275 36.1822V29.7783H17.1167C17.6934 29.7783 18.1908 29.8708 18.6081 30.0566C19.0254 30.2434 19.3468 30.5099 19.5744 30.8578C19.801 31.2048 19.9143 31.6197 19.9143 32.1022C19.9143 32.5774 19.801 32.9877 19.5744 33.3319C19.3468 33.6771 19.0254 33.9408 18.6081 34.1239C18.1908 34.307 17.6934 34.3986 17.1167 34.3986H15.1566L15.8188 33.7485V36.1823H14.3275L14.3275 36.1822ZM18.4239 36.1822L16.8128 33.8584H18.4055L20.0341 36.1822H18.4239ZM15.8189 33.9133L15.1566 33.2183H17.0339C17.4945 33.2183 17.8381 33.1185 18.0647 32.9208C18.2922 32.7221 18.4055 32.4492 18.4055 32.1022C18.4055 31.7479 18.2921 31.4732 18.0647 31.2782C17.8381 31.0831 17.4945 30.9861 17.0339 30.9861H15.1566L15.8189 30.281V33.9134V33.9133Z" fill="white"/>
<path d="M20.805 36.1822V29.7783H22.2964V36.1822H20.805Z" fill="white"/>
<path d="M26.6202 36.2918C26.1228 36.2918 25.6613 36.2112 25.2348 36.0491C24.8083 35.888 24.4389 35.6572 24.1257 35.3587C23.8125 35.0593 23.5684 34.7086 23.3934 34.3066C23.2193 33.9037 23.1318 33.4615 23.1318 32.9799C23.1318 32.4983 23.2193 32.056 23.3934 31.6531C23.5684 31.2502 23.8144 30.8995 24.1304 30.601C24.4463 30.3016 24.8157 30.0718 25.2394 29.9097C25.6622 29.7486 26.1256 29.668 26.6294 29.668C27.1876 29.668 27.6924 29.7641 28.1429 29.9555C28.5942 30.1478 28.9728 30.4298 29.2795 30.8024L28.3224 31.6805C28.1014 31.4306 27.8564 31.2429 27.5865 31.1175C27.3165 30.9929 27.0218 30.9307 26.7031 30.9307C26.4019 30.9307 26.1255 30.9792 25.874 31.0762C25.6226 31.1742 25.4052 31.3143 25.221 31.4974C25.0367 31.6805 24.894 31.8966 24.7926 32.1475C24.6913 32.3975 24.6406 32.6749 24.6406 32.9798C24.6406 33.2847 24.6913 33.5622 24.7926 33.8121C24.8939 34.0621 25.0367 34.2791 25.221 34.4622C25.4052 34.6444 25.6226 34.7854 25.874 34.8824C26.1255 34.9804 26.4019 35.0289 26.7031 35.0289C27.0218 35.0289 27.3165 34.9666 27.5865 34.8412C27.8564 34.7167 28.1014 34.5253 28.3224 34.2699L29.2795 35.148C28.9728 35.5197 28.5942 35.8036 28.1429 35.9986C27.6924 36.1936 27.1839 36.2916 26.6202 36.2916V36.2918Z" fill="white"/>
<path d="M32.8214 36.2922C31.9066 36.2922 31.1918 36.0385 30.677 35.5331C30.1611 35.0267 29.9032 34.3034 29.9032 33.3639V29.7783H31.3946V33.3099C31.3946 33.9197 31.5208 34.3583 31.7722 34.6266C32.0237 34.8949 32.3765 35.0295 32.8307 35.0295C33.2848 35.0295 33.6376 34.8949 33.889 34.6266C34.1405 34.3583 34.2667 33.9197 34.2667 33.3099V29.7783H35.7386V33.3639C35.7386 34.3034 35.4817 35.0267 34.9658 35.5331C34.45 36.0385 33.7352 36.2922 32.8214 36.2922H32.8214Z" fill="white"/>
<path d="M36.9241 36.1822V29.7783H38.4155V34.9745H41.646V36.1822H36.9241Z" fill="white"/>
<path d="M42.9328 36.1822V30.986H40.8713V29.7783H46.4857V30.986H44.4241V36.1822H42.9328Z" fill="white"/>
<path d="M49.7511 36.2922C48.8364 36.2922 48.1216 36.0385 47.6067 35.5331C47.0909 35.0267 46.833 34.3034 46.833 33.3639V29.7783H48.3243V33.3099C48.3243 33.9197 48.4505 34.3583 48.702 34.6266C48.9535 34.8949 49.3063 35.0295 49.7603 35.0295C50.2145 35.0295 50.5673 34.8949 50.8188 34.6266C51.0703 34.3583 51.1964 33.9197 51.1964 33.3099V29.7783H52.6684V33.3639C52.6684 34.3034 52.4114 35.0267 51.8956 35.5331C51.3798 36.0385 50.6649 36.2922 49.7512 36.2922H49.7511Z" fill="white"/>
<path d="M53.8539 36.1822V29.7783H56.6431C57.2198 29.7783 57.7172 29.8708 58.1345 30.0566C58.5518 30.2434 58.8732 30.5099 59.1008 30.8578C59.3274 31.2048 59.4407 31.6197 59.4407 32.1022C59.4407 32.5774 59.3274 32.9877 59.1008 33.3319C58.8732 33.6771 58.5518 33.9408 58.1345 34.1239C57.7172 34.307 57.2198 34.3986 56.6431 34.3986H54.683L55.3452 33.7485V36.1823L53.8539 36.1822ZM57.9502 36.1822L56.3391 33.8584H57.9318L59.5604 36.1822H57.9502ZM55.3452 33.9133L54.683 33.2183H56.5602C57.0208 33.2183 57.3644 33.1185 57.591 32.9208C57.8185 32.7221 57.9319 32.4492 57.9319 32.1022C57.9319 31.7479 57.8185 31.4732 57.591 31.2782C57.3644 31.0831 57.0208 30.9861 56.5602 30.9861H54.683L55.3452 30.281V33.9133Z" fill="white"/>
<path d="M59.4849 36.1822L62.357 29.7783H63.829L66.7103 36.1822H65.1453L62.789 30.5282H63.3785L61.013 36.1822H59.4848H59.4849ZM60.9209 34.8097L61.3161 33.6844H64.6304L65.0348 34.8097H60.9209Z" fill="white"/>
<path d="M71.071 32.3576H74.1725V33.5104H71.071V32.3576ZM71.1816 34.9928H74.6884V36.1822H69.6995V29.7783H74.5687V30.9677H71.1816V34.9928Z" fill="white"/>
<path d="M78.1933 36.1822V29.7783H80.9825C81.5592 29.7783 82.0566 29.8708 82.4739 30.0566C82.8911 30.2434 83.2126 30.5099 83.4402 30.8578C83.6668 31.2048 83.7801 31.6197 83.7801 32.1022C83.7801 32.5774 83.6668 32.9895 83.4402 33.3365C83.2126 33.6844 82.8911 33.9518 82.4739 34.1377C82.0566 34.3236 81.5592 34.417 80.9825 34.417H79.0223L79.6846 33.7486V36.1823H78.1933L78.1933 36.1822ZM79.6847 33.9133L79.0224 33.2092H80.8997C81.3602 33.2092 81.7039 33.1112 81.9304 32.9162C82.158 32.7212 82.2712 32.4492 82.2712 32.1022C82.2712 31.7479 82.1579 31.4732 81.9304 31.2782C81.7039 31.0831 81.3602 30.9861 80.8997 30.9861H79.0224L79.6847 30.281V33.9134V33.9133Z" fill="white"/>
<path d="M85.9226 32.3576H89.0241V33.5104H85.9226V32.3576ZM86.0332 34.9928H89.54V36.1822H84.5511V29.7783H89.4203V30.9677H86.0333V34.9928H86.0332Z" fill="white"/>
<path d="M93.524 36.2918C93.0265 36.2918 92.5651 36.2112 92.1385 36.0491C91.712 35.888 91.3427 35.6572 91.0295 35.3587C90.7163 35.0593 90.4722 34.7086 90.2972 34.3066C90.123 33.9037 90.0355 33.4615 90.0355 32.9799C90.0355 32.4983 90.123 32.056 90.2972 31.6531C90.4722 31.2502 90.7181 30.8995 91.034 30.601C91.35 30.3016 91.7194 30.0718 92.1431 29.9097C92.5659 29.7486 93.0293 29.668 93.5331 29.668C94.0913 29.668 94.5961 29.7641 95.0465 29.9555C95.4979 30.1478 95.8765 30.4298 96.1832 30.8024L95.2262 31.6805C95.0051 31.4306 94.7601 31.2429 94.4902 31.1175C94.2203 30.9929 93.9256 30.9307 93.6068 30.9307C93.3056 30.9307 93.0293 30.9792 92.7778 31.0762C92.5263 31.1742 92.3089 31.3143 92.1247 31.4974C91.9404 31.6805 91.7977 31.8966 91.6964 32.1475C91.595 32.3975 91.5444 32.6749 91.5444 32.9798C91.5444 33.2847 91.5951 33.5622 91.6964 33.8121C91.7977 34.0621 91.9405 34.2791 92.1247 34.4622C92.3089 34.6444 92.5263 34.7854 92.7778 34.8824C93.0293 34.9804 93.3056 35.0289 93.6068 35.0289C93.9255 35.0289 94.2203 34.9666 94.4902 34.8412C94.7601 34.7167 95.0051 34.5253 95.2262 34.2699L96.1832 35.148C95.8765 35.5197 95.4979 35.8036 95.0465 35.9986C94.5961 36.1936 94.0876 36.2916 93.5239 36.2916L93.524 36.2918Z" fill="white"/>
<path d="M99.7251 36.2922C98.8104 36.2922 98.0956 36.0385 97.5807 35.5331C97.0649 35.0267 96.8069 34.3034 96.8069 33.3639V29.7783H98.2983V33.3099C98.2983 33.9197 98.4245 34.3583 98.676 34.6266C98.9274 34.8949 99.2802 35.0295 99.7343 35.0295C100.188 35.0295 100.541 34.8949 100.793 34.6266C101.044 34.3583 101.17 33.9197 101.17 33.3099V29.7783H102.642V33.3639C102.642 34.3034 102.385 35.0267 101.87 35.5331C101.354 36.0385 100.639 36.2922 99.7251 36.2922H99.7251Z" fill="white"/>
<path d="M102.843 36.1819L105.715 29.778H107.187L110.069 36.1819H108.504L106.147 30.5279H106.737L104.371 36.1819H102.843H102.843ZM104.279 34.8093L104.674 33.6841H107.989L108.393 34.8093H104.279ZM105.614 29.2561L106.857 27.9385H108.402L106.737 29.2561H105.614Z" fill="white"/>
<path d="M110.453 36.1822V29.7783H113.242C113.819 29.7783 114.316 29.8708 114.733 30.0566C115.151 30.2434 115.472 30.5099 115.7 30.8578C115.926 31.2048 116.04 31.6197 116.04 32.1022C116.04 32.5774 115.926 32.9877 115.7 33.3319C115.472 33.6771 115.151 33.9408 114.733 34.1239C114.316 34.307 113.819 34.3986 113.242 34.3986H111.282L111.944 33.7485V36.1823H110.453L110.453 36.1822ZM114.549 36.1822L112.938 33.8584H114.531L116.159 36.1822H114.549ZM111.944 33.9133L111.282 33.2183H113.159C113.62 33.2183 113.963 33.1185 114.19 32.9208C114.417 32.7221 114.531 32.4492 114.531 32.1022C114.531 31.7479 114.417 31.4732 114.19 31.2782C113.963 31.0831 113.62 30.9861 113.159 30.9861H111.282L111.944 30.281V33.9134V33.9133Z" fill="white"/>
<path d="M116.93 36.1822V29.7783H118.422V36.1822H116.93Z" fill="white"/>
<path d="M118.815 36.1822L121.687 29.7783H123.159L126.04 36.1822H124.475L122.119 30.5282H122.709L120.343 36.1822H118.815H118.815ZM120.251 34.8097L120.646 33.6844H123.96L124.365 34.8097H120.251H120.251Z" fill="white"/>
<path d="M215.513 16.6558H216.306V18.8945C216.02 19.1289 215.686 19.3092 215.307 19.4356C213.892 19.9026 212.228 19.5171 211.434 18.1931C210.895 17.2958 210.899 16.0789 211.434 15.1806C212.216 13.8685 214.002 13.4263 215.393 13.9793C215.77 14.1295 216.091 14.3501 216.356 14.6395L215.844 15.1476C214.79 14.1405 212.914 14.2732 212.157 15.5533C211.759 16.2299 211.759 17.14 212.157 17.8158C212.82 18.9383 214.434 19.2131 215.513 18.5254V16.6557V16.6558ZM300.902 23.2519H315.856V27.1974H315.748H314.896C312.832 27.2285 310.757 27.6378 310.752 31.5979V31.6098V31.6327V33.1856V35.4234V40.8393H306.018V29.61C306.045 28.4133 306.367 27.5919 306.844 27.1973H300.902V27.1964V26.6717V24.0228V23.2518L300.902 23.2519ZM275.704 37.1411C272.704 37.1136 269.104 38.1703 267.293 40.8284H262.397L269.888 23.2519H274.618L282.135 40.8284H277.14L275.704 37.1411H275.704ZM341.501 40.8393V23.2519H336.985V33.181L329.164 23.2519H325.729V40.8393H330.245V30.9103L338.066 40.8393H341.501H341.501ZM356.88 39.6582C355.39 40.7615 353.316 41.2551 351.377 41.2551C349.412 41.2551 347.515 40.7441 346.057 39.6948C344.727 38.7352 343.763 37.3362 343.445 35.4738L343.403 35.1561H347.887L347.993 35.504H347.988C348.392 36.4425 349.064 37.0752 349.829 37.4461C350.454 37.7491 351.144 37.88 351.804 37.8617C352.456 37.8444 353.078 37.6804 353.576 37.3911C354.129 37.0725 354.523 36.5991 354.614 36.0104L354.626 35.9545C354.658 35.8382 354.666 35.7201 354.65 35.6066C354.635 35.5022 354.6 35.3978 354.544 35.298L354.528 35.2705C354.428 35.1039 354.268 34.9437 354.047 34.7971C353.821 34.6497 353.532 34.5197 353.175 34.4153L348.498 33.1252C347.859 32.9521 347.274 32.747 346.757 32.4952C346.22 32.2333 345.751 31.9193 345.364 31.5393C345.13 31.3095 344.928 31.055 344.76 30.783C344.191 29.8646 344.013 28.764 344.163 27.6992C344.312 26.6453 344.783 25.6179 345.508 24.8333C345.761 24.5604 346.049 24.3132 346.367 24.1044C347.004 23.6851 347.743 23.3783 348.538 23.1751C349.366 22.9627 350.264 22.8601 351.176 22.8601H351.252C353.196 22.8848 354.96 23.3894 356.299 24.4167C357.489 25.3296 358.34 26.6463 358.681 28.3906H354.019C353.635 27.5326 352.964 26.9832 352.218 26.6957C351.697 26.4952 351.136 26.4201 350.607 26.4558C350.09 26.4906 349.609 26.6307 349.233 26.8624C348.811 27.1215 348.524 27.4997 348.492 27.9666L348.489 28.1186C348.486 28.2038 348.496 28.2898 348.523 28.3732C348.548 28.4602 348.593 28.5463 348.653 28.6305C349.162 29.3291 351.315 29.8079 352.792 30.1367C353.128 30.2117 353.43 30.2786 353.72 30.3537C355.077 30.6924 356.363 31.1311 357.33 31.8873C358.348 32.6839 359 33.8028 359 35.4684C359 37.3408 358.152 38.7161 356.88 39.6583L356.88 39.6582ZM255.058 41.19C253.334 41.19 251.786 40.7963 250.413 40.0089C249.038 39.2224 247.959 38.1337 247.175 36.7438C246.391 35.3529 245.999 33.7881 245.999 32.0457C245.999 30.3033 246.391 28.7375 247.175 27.3467C247.96 25.9568 249.038 24.8681 250.413 24.0816C251.786 23.2942 253.334 22.9013 255.058 22.9013C259.817 22.9013 262.249 25.4642 263.132 29.08H258.682C257.944 27.474 256.787 26.4119 255.058 26.4119C254.235 26.4119 253.49 26.6463 252.822 27.1169C252.154 27.5857 251.627 28.2477 251.238 29.102C250.85 29.9562 250.657 30.9378 250.657 32.0457C250.657 33.1536 250.85 34.1343 251.238 34.9885C251.627 35.8428 252.154 36.5057 252.822 36.9736C253.49 37.4433 254.235 37.6786 255.058 37.6786C256.787 37.6786 257.944 36.6174 258.682 35.0105H263.132C262.249 38.6272 259.817 41.19 255.058 41.19ZM317.71 23.2519H322.43V40.8393H317.71V23.2519ZM299.051 40.8393V23.2519H294.535V33.181L286.713 23.2519H283.279V40.8393H287.794V30.9103L295.616 40.8393H299.051H299.051ZM235.408 41.19C233.684 41.19 232.136 40.7972 230.762 40.0098C229.387 39.2224 228.309 38.1337 227.525 36.7438C226.741 35.3529 226.349 33.7872 226.349 32.0457C226.349 30.3042 226.741 28.7375 227.525 27.3476C228.309 25.9577 229.387 24.8681 230.762 24.0816C232.136 23.2942 233.684 22.9004 235.408 22.9004C237.131 22.9004 238.679 23.2942 240.053 24.0816C241.428 24.8681 242.506 25.9577 243.29 27.3476C244.074 28.7375 244.467 30.3042 244.467 32.0457C244.467 33.7872 244.074 35.3529 243.29 36.7438C242.506 38.1337 241.428 39.2224 240.053 40.0098C238.679 40.7972 237.131 41.19 235.408 41.19ZM211.034 23.2519H225.987V27.1974H225.879H225.026C222.962 27.2285 220.887 27.6378 220.883 31.5979V31.6098V31.6327V33.1856V35.4234V40.8393H216.15V29.61C216.175 28.4133 216.498 27.5919 216.975 27.1973H211.034V27.1964V26.6717V24.0228V23.2518L211.034 23.2519ZM235.408 37.6786C236.231 37.6786 236.976 37.4433 237.643 36.9735C238.311 36.5057 238.838 35.8428 239.227 34.9885C239.614 34.1342 239.808 33.1536 239.808 32.0456C239.808 30.9377 239.614 29.9562 239.227 29.1019C238.838 28.2476 238.311 27.5856 237.643 27.1168C236.976 26.6471 236.231 26.4118 235.408 26.4118C234.585 26.4118 233.839 26.6471 233.171 27.1168C232.505 27.5857 231.977 28.2477 231.588 29.1019C231.2 29.9562 231.007 30.9377 231.007 32.0456C231.007 33.1536 231.2 34.1342 231.588 34.9885C231.977 35.8428 232.505 36.5057 233.171 36.9735C233.839 37.4433 234.585 37.6786 235.408 37.6786ZM271.916 33.2744C272.665 33.0913 273.397 32.9795 274.081 32.9329L272.217 28.1231L269.976 33.9089C270.566 33.6599 271.22 33.4438 271.916 33.2744V33.2744ZM220.496 19.6233C218.78 19.6233 217.413 18.4284 217.413 16.6896C217.413 14.95 218.78 13.7541 220.496 13.7541C222.214 13.7541 223.562 14.9518 223.562 16.6896C223.562 18.4266 222.215 19.6233 220.496 19.6233ZM220.496 18.8945C221.771 18.8945 222.736 17.9596 222.736 16.6896C222.736 15.4188 221.771 14.4839 220.496 14.4839C219.216 14.4839 218.24 15.4086 218.24 16.6896C218.24 17.9688 219.215 18.8945 220.496 18.8945ZM229.668 13.82L227.132 19.5583H226.314L223.768 13.82H224.661L226.744 18.5337L228.842 13.82H229.668ZM234.602 18.845V19.5583H230.404V13.8201H234.487V14.5324H231.231V16.295H234.131V16.9927H231.231V18.845H234.602L234.602 18.845ZM239.808 19.5583L238.561 17.7957C238.406 17.8067 238.285 17.8122 238.197 17.8122H236.768V19.5583H235.941V13.8201H238.197C238.946 13.8201 239.536 13.9977 239.966 14.3521C240.706 14.9646 240.822 16.1842 240.28 16.9516C240.059 17.2629 239.746 17.4899 239.338 17.6319L240.709 19.5584H239.808L239.808 19.5583ZM238.172 17.1154C238.696 17.1154 239.095 17.0028 239.371 16.7794C239.927 16.3261 239.932 15.3153 239.371 14.8648C239.095 14.6441 238.696 14.5324 238.172 14.5324H236.768V17.1154H238.172V17.1154ZM246.923 13.82V19.5583H246.246L242.775 15.2786V19.5583H241.949V13.82H242.627L246.097 18.0987V13.82H246.923ZM251.27 19.6233C249.555 19.6233 248.188 18.4284 248.188 16.6896C248.188 14.95 249.554 13.7541 251.27 13.7541C252.989 13.7541 254.337 14.9518 254.337 16.6896C254.337 18.4266 252.989 19.6233 251.27 19.6233ZM251.27 18.8945C252.546 18.8945 253.509 17.9596 253.509 16.6896C253.509 15.4188 252.546 14.4839 251.27 14.4839C249.991 14.4839 249.014 15.4086 249.014 16.6896C249.014 17.9688 249.99 18.8945 251.27 18.8945ZM257.823 13.82H260.262C261.356 13.82 262.413 14.2311 262.993 15.1925C263.52 16.0679 263.52 17.3104 262.993 18.1848C262.413 19.1471 261.355 19.5583 260.262 19.5583H257.823V13.82ZM260.212 18.845C261.035 18.845 261.837 18.5465 262.27 17.8158C262.658 17.1612 262.658 16.2172 262.27 15.5616C261.837 14.8318 261.035 14.5324 260.212 14.5324H258.65V18.845H260.212ZM267.261 19.6233C265.545 19.6233 264.179 18.4284 264.179 16.6896C264.179 14.95 265.545 13.7541 267.261 13.7541C268.98 13.7541 270.327 14.9518 270.327 16.6896C270.327 18.4266 268.98 19.6233 267.261 19.6233ZM267.261 18.8945C268.537 18.8945 269.501 17.9596 269.501 16.6896C269.501 15.4188 268.536 14.4839 267.261 14.4839C265.981 14.4839 265.005 15.4086 265.005 16.6896C265.005 17.9688 265.981 18.8945 267.261 18.8945Z" fill="white"/>
<path fill-rule="evenodd" clip-rule="evenodd" d="M141.436 20.2207L140.902 27.0477L157.58 24.971L153.352 21.7049L141.436 20.2207ZM154.561 3.28159L149.327 7.73519L162.597 17.9884L161.931 12.708L154.561 3.28159ZM175.891 0.530156L169.023 0L171.112 16.5775L174.397 12.3765L175.891 0.530103V0.530156ZM192.931 13.5769L188.452 8.37434L178.137 21.5649L183.448 20.9038L192.931 13.5769H192.931ZM195.551 34.7802L196.084 27.9523L179.407 30.029L183.633 33.295L195.551 34.7802H195.551ZM182.575 51.7184L187.809 47.2657L174.538 37.0116L175.204 42.292L182.575 51.7185V51.7184ZM161.244 54.4698L168.113 55L166.023 38.4225L162.738 42.6235L161.244 54.4699V54.4698ZM144.204 41.4231L148.683 46.6257L158.998 33.4351L153.687 34.0971L144.204 41.4231H144.204Z" fill="#E8A800"/>
<path fill-rule="evenodd" clip-rule="evenodd" d="M144.204 13.5769L148.683 8.37434L158.998 21.5649L153.687 20.9038L144.204 13.5769H144.204ZM161.244 0.530156L168.113 0L166.023 16.5775L162.738 12.3765L161.244 0.530103V0.530156ZM182.575 3.28159L187.809 7.73519L174.538 17.9884L175.204 12.708L182.575 3.28159ZM195.551 20.2207L196.084 27.0477L179.407 24.971L183.633 21.7049L195.551 20.2207H195.551ZM192.931 41.423L188.452 46.6256L178.137 33.435L183.448 34.097L192.931 41.423H192.931ZM175.891 54.4698L169.023 54.9999L171.112 38.4225L174.397 42.6234L175.891 54.4698V54.4698ZM154.561 51.7184L149.327 47.2657L162.597 37.0115L161.931 42.292L154.561 51.7184V51.7184ZM141.436 34.7801L140.902 27.9523L157.58 30.0289L153.352 33.295L141.436 34.7801Z" fill="white"/>
<path d="M212.777 50.4452H211.019V49.8116H215.262V50.4452H213.503V54.9126H212.777V50.4452H212.777ZM219.272 54.9126L218.166 53.3459C218.029 53.3551 217.921 53.3606 217.844 53.3606H216.576V54.9126H215.843V49.8116H217.844C218.508 49.8116 219.031 49.9691 219.411 50.285C219.793 50.6009 219.983 51.0358 219.983 51.5897C219.983 51.9825 219.885 52.3186 219.69 52.5951C219.494 52.8716 219.215 53.0739 218.855 53.2004L220.071 54.9126H219.272H219.272ZM217.822 52.7407C218.286 52.7407 218.639 52.6409 218.885 52.4422C219.128 52.2426 219.25 51.9587 219.25 51.5897C219.25 51.2198 219.128 50.9369 218.885 50.74C218.639 50.5441 218.286 50.4452 217.822 50.4452H216.576V52.7407H217.822ZM224.22 53.6371H221.494L220.93 54.9126H220.175L222.498 49.8116H223.224L225.555 54.9126H224.785L224.22 53.6371ZM223.964 53.0538L222.857 50.5551L221.75 53.0538H223.964ZM229.55 52.2673C229.848 52.3497 230.083 52.499 230.253 52.7151C230.425 52.9312 230.51 53.205 230.51 53.5355C230.51 53.9778 230.343 54.3174 230.008 54.5555C229.673 54.7935 229.186 54.9126 228.546 54.9126H226.098V49.8116H228.399C228.986 49.8116 229.439 49.9278 229.759 50.1614C230.079 50.3939 230.239 50.7172 230.239 51.1301C230.239 51.3974 230.177 51.6282 230.052 51.8223C229.927 52.0173 229.76 52.1648 229.55 52.2673H229.55ZM226.831 50.4013V52.0339H228.333C228.709 52.0339 228.999 51.9652 229.201 51.826C229.405 51.6878 229.506 51.4854 229.506 51.218C229.506 50.9507 229.405 50.7474 229.201 50.6091C228.999 50.4709 228.709 50.4013 228.333 50.4013H226.831ZM228.516 54.322C228.931 54.322 229.245 54.2542 229.455 54.1178C229.665 53.9823 229.77 53.7681 229.77 53.4768C229.77 52.9082 229.351 52.6244 228.516 52.6244H226.831V54.322H228.516ZM234.696 53.6371H231.97L231.406 54.9126H230.65L232.973 49.8116H233.699L236.03 54.9126H235.26L234.696 53.6371ZM234.44 53.0538L233.333 50.5551L232.226 53.0538H234.44H234.44ZM236.574 49.8116H237.307V54.2789H240.084V54.9126H236.574V49.8116ZM245.121 49.8116V54.9126H244.388V52.6391H241.442V54.9126H240.709V49.8116H241.442V52.0045H244.388V49.8116H245.121ZM249.71 53.6371H246.984L246.42 54.9126H245.665L247.988 49.8116H248.714L251.044 54.9126H250.274L249.71 53.6371ZM249.454 53.0538L248.347 50.5551L247.24 53.0538H249.454ZM255.999 49.8116V54.9126H255.399L252.321 51.1081V54.9126H251.588V49.8116H252.189L255.267 53.6151V49.8116H255.999ZM257.321 49.8116H259.483C260.026 49.8116 260.506 49.9178 260.927 50.1321C261.347 50.3454 261.673 50.6458 261.905 51.0321C262.137 51.4186 262.253 51.8617 262.253 52.3616C262.253 52.8625 262.137 53.3057 261.905 53.692C261.673 54.0785 261.347 54.3779 260.927 54.5921C260.506 54.8055 260.026 54.9126 259.483 54.9126H257.321V49.8116ZM259.439 54.2789C259.854 54.2789 260.219 54.1983 260.535 54.0381C260.849 53.8779 261.092 53.6527 261.264 53.3642C261.434 53.0748 261.52 52.7407 261.52 52.3616C261.52 51.9825 261.434 51.6492 261.264 51.3599C261.092 51.0705 260.849 50.8462 260.535 50.686C260.219 50.5257 259.854 50.4452 259.439 50.4452H258.054V54.2789H259.439ZM265.471 54.9711C264.954 54.9711 264.488 54.8576 264.072 54.6323C263.657 54.4061 263.33 54.0939 263.093 53.6956C262.857 53.2973 262.738 52.8523 262.738 52.3615C262.738 51.8708 262.857 51.4267 263.093 51.0284C263.33 50.6301 263.657 50.3179 264.072 50.0917C264.488 49.8655 264.954 49.7529 265.471 49.7529C265.985 49.7529 266.449 49.8655 266.864 50.0917C267.28 50.3179 267.604 50.6282 267.838 51.0247C268.073 51.4202 268.191 51.8662 268.191 52.3615C268.191 52.8578 268.073 53.3028 267.838 53.6992C267.604 54.0948 267.28 54.4061 266.864 54.6322C266.449 54.8575 265.985 54.971 265.471 54.971V54.9711ZM265.471 54.322C265.847 54.322 266.186 54.2368 266.487 54.0674C266.787 53.8971 267.025 53.6627 267.198 53.3642C267.371 53.0648 267.458 52.7315 267.458 52.3616C267.458 51.9926 267.371 51.6584 267.198 51.3599C267.025 51.0614 266.787 50.827 266.487 50.6567C266.186 50.4864 265.847 50.4012 265.471 50.4012C265.096 50.4012 264.755 50.4863 264.449 50.6567C264.144 50.827 263.905 51.0614 263.731 51.3599C263.557 51.6584 263.471 51.9926 263.471 52.3616C263.471 52.7315 263.557 53.0648 263.731 53.3642C263.905 53.6627 264.144 53.8971 264.449 54.0674C264.755 54.2368 265.096 54.322 265.471 54.322ZM274.788 54.2789V54.9126H271.066V49.8116H274.685V50.4452H271.799V52.0118H274.371V52.6317H271.799V54.2789H274.788ZM280.023 54.9711C279.51 54.9711 279.046 54.8576 278.635 54.6323C278.221 54.4061 277.898 54.0948 277.663 53.6993C277.428 53.3029 277.311 52.8579 277.311 52.3616C277.311 51.8663 277.428 51.4204 277.663 51.0248C277.898 50.6283 278.223 50.3179 278.638 50.0918C279.053 49.8656 279.517 49.753 280.03 49.753C280.431 49.753 280.798 49.8198 281.13 49.9535C281.461 50.0872 281.744 50.285 281.979 50.5477L281.503 51.0065C281.117 50.6036 280.636 50.4012 280.06 50.4012C279.678 50.4012 279.334 50.4863 279.025 50.6567C278.718 50.827 278.478 51.0614 278.304 51.3599C278.131 51.6584 278.044 51.9926 278.044 52.3616C278.044 52.7315 278.131 53.0648 278.304 53.3642C278.478 53.6627 278.718 53.8971 279.025 54.0674C279.334 54.2368 279.678 54.322 280.06 54.322C280.631 54.322 281.113 54.1178 281.503 53.7103L281.979 54.169C281.744 54.4318 281.46 54.6305 281.126 54.7669C280.791 54.9025 280.424 54.9711 280.023 54.9711ZM284.912 54.9711C284.228 54.9711 283.695 54.7761 283.315 54.3879C282.934 53.9988 282.743 53.4402 282.743 52.7114V49.8116H283.476V52.683C283.476 53.7753 283.956 54.322 284.92 54.322C285.388 54.322 285.748 54.1874 285.996 53.9182C286.245 53.6481 286.37 53.236 286.37 52.683V49.8116H287.082V52.7114C287.082 53.4457 286.891 54.0052 286.51 54.3916C286.128 54.778 285.597 54.9712 284.912 54.9712L284.912 54.9711ZM288.366 49.8116H289.099V54.9126H288.366V49.8116ZM290.42 49.8116H292.582C293.123 49.8116 293.604 49.9178 294.025 50.1321C294.445 50.3454 294.771 50.6458 295.003 51.0321C295.235 51.4186 295.351 51.8617 295.351 52.3616C295.351 52.8625 295.235 53.3057 295.003 53.692C294.771 54.0785 294.445 54.3779 294.025 54.5921C293.604 54.8055 293.123 54.9126 292.582 54.9126H290.42V49.8116ZM292.538 54.2789C292.952 54.2789 293.317 54.1983 293.633 54.0381C293.948 53.8779 294.191 53.6527 294.362 53.3642C294.533 53.0748 294.618 52.7407 294.618 52.3616C294.618 51.9825 294.533 51.6492 294.362 51.3599C294.191 51.0705 293.948 50.8462 293.633 50.686C293.317 50.5257 292.952 50.4452 292.538 50.4452H291.152V54.2789H292.538ZM299.45 53.6371H296.724L296.159 54.9126H295.404L297.727 49.8116H298.453L300.784 54.9126H300.014L299.45 53.6371ZM299.194 53.0538L298.086 50.5551L296.98 53.0538H299.194ZM305.739 49.8116V54.9126H305.138L302.06 51.1081V54.9126H301.328V49.8116H301.929L305.006 53.6151V49.8116H305.739H305.739ZM307.06 49.8116H309.222C309.765 49.8116 310.246 49.9178 310.667 50.1321C311.087 50.3454 311.412 50.6458 311.644 51.0321C311.876 51.4186 311.992 51.8617 311.992 52.3616C311.992 52.8625 311.876 53.3057 311.644 53.692C311.412 54.0785 311.087 54.3779 310.667 54.5921C310.246 54.8055 309.765 54.9126 309.222 54.9126H307.06V49.8116ZM309.178 54.2789C309.593 54.2789 309.958 54.1983 310.274 54.0381C310.589 53.8779 310.832 53.6527 311.004 53.3642C311.174 53.0748 311.259 52.7407 311.259 52.3616C311.259 51.9825 311.174 51.6492 311.004 51.3599C310.832 51.0705 310.589 50.8462 310.274 50.686C309.958 50.5257 309.593 50.4452 309.178 50.4452H307.794V54.2789H309.178ZM315.212 54.9711C314.693 54.9711 314.227 54.8576 313.811 54.6323C313.397 54.4061 313.07 54.0939 312.833 53.6956C312.596 53.2973 312.478 52.8523 312.478 52.3615C312.478 51.8708 312.596 51.4267 312.833 51.0284C313.07 50.6301 313.397 50.3179 313.811 50.0917C314.227 49.8655 314.693 49.7529 315.212 49.7529C315.725 49.7529 316.188 49.8655 316.603 50.0917C317.019 50.3179 317.344 50.6282 317.578 51.0247C317.813 51.4202 317.931 51.8662 317.931 52.3615C317.931 52.8578 317.813 53.3028 317.578 53.6992C317.344 54.0948 317.019 54.4061 316.603 54.6322C316.188 54.8575 315.725 54.971 315.212 54.971V54.9711ZM315.212 54.322C315.587 54.322 315.925 54.2368 316.226 54.0674C316.526 53.8971 316.764 53.6627 316.937 53.3642C317.11 53.0648 317.198 52.7315 317.198 52.3616C317.198 51.9926 317.11 51.6584 316.937 51.3599C316.764 51.0614 316.526 50.827 316.226 50.6567C315.925 50.4864 315.587 50.4012 315.212 50.4012C314.835 50.4012 314.494 50.4863 314.188 50.6567C313.883 50.827 313.644 51.0614 313.471 51.3599C313.297 51.6584 313.211 51.9926 313.211 52.3616C313.211 52.7315 313.297 53.0648 313.471 53.3642C313.644 53.6627 313.883 53.8971 314.188 54.0674C314.494 54.2368 314.835 54.322 315.212 54.322ZM320.805 49.8116H322.967C323.509 49.8116 323.99 49.9178 324.411 50.1321C324.831 50.3454 325.156 50.6458 325.388 51.0321C325.621 51.4186 325.737 51.8617 325.737 52.3616C325.737 52.8625 325.62 53.3057 325.388 53.692C325.156 54.0785 324.831 54.3779 324.411 54.5921C323.99 54.8055 323.509 54.9126 322.967 54.9126H320.805V49.8116ZM322.922 54.2789C323.338 54.2789 323.703 54.1983 324.019 54.0381C324.334 53.8779 324.577 53.6527 324.748 53.3642C324.919 53.0748 325.004 52.7407 325.004 52.3616C325.004 51.9825 324.919 51.6492 324.748 51.3599C324.577 51.0705 324.334 50.8462 324.019 50.686C323.703 50.5257 323.338 50.4452 322.922 50.4452H321.538V54.2789H322.922ZM330.363 54.2789V54.9126H326.64V49.8116H330.259V50.4452H327.373V52.0118H329.944V52.6317H327.373V54.2789H330.363ZM334.206 50.773H332.563V49.8116H337.033V50.773H335.392V54.9126H334.206V50.773ZM339.853 55.0004C339.32 55.0004 338.841 54.886 338.413 54.6571C337.985 54.4291 337.651 54.1141 337.408 53.714C337.167 53.313 337.045 52.8624 337.045 52.3616C337.045 51.8617 337.167 51.4112 337.408 51.0101C337.651 50.6091 337.985 50.295 338.413 50.0661C338.841 49.8381 339.32 49.7236 339.853 49.7236C340.386 49.7236 340.865 49.8381 341.289 50.0661C341.714 50.295 342.049 50.6091 342.293 51.0101C342.537 51.4112 342.66 51.8616 342.66 52.3616C342.66 52.8624 342.537 53.313 342.293 53.714C342.049 54.1142 341.714 54.4291 341.289 54.6571C340.865 54.886 340.386 55.0004 339.853 55.0004ZM339.853 53.9942C340.156 53.9942 340.43 53.9255 340.674 53.7863C340.918 53.6481 341.11 53.4549 341.249 53.2076C341.388 52.9595 341.458 52.6775 341.458 52.3616C341.458 52.0457 341.388 51.7646 341.249 51.5165C341.11 51.2692 340.918 51.076 340.674 50.9369C340.43 50.7986 340.156 50.7299 339.853 50.7299C339.55 50.7299 339.276 50.7986 339.031 50.9369C338.788 51.076 338.597 51.2692 338.458 51.5165C338.318 51.7646 338.248 52.0457 338.248 52.3616C338.248 52.6775 338.318 52.9595 338.458 53.2076C338.597 53.4549 338.788 53.6481 339.031 53.7863C339.276 53.9255 339.55 53.9942 339.853 53.9942ZM343.325 49.8116H345.655C346.211 49.8116 346.704 49.9169 347.131 50.1284C347.559 50.3399 347.891 50.6375 348.128 51.0211C348.365 51.4047 348.483 51.8516 348.483 52.3616C348.483 52.8716 348.365 53.3193 348.128 53.703C347.891 54.0866 347.559 54.3842 347.131 54.5957C346.704 54.8072 346.211 54.9125 345.655 54.9125H343.325V49.8115V49.8116ZM345.596 53.9429C346.109 53.9429 346.518 53.801 346.823 53.5171C347.129 53.2324 347.281 52.8478 347.281 52.3616C347.281 51.8763 347.129 51.4908 346.823 51.207C346.518 50.9222 346.109 50.7803 345.596 50.7803H344.511V53.9429H345.596ZM351.633 55.0004C351.099 55.0004 350.619 54.886 350.193 54.6571C349.765 54.4291 349.43 54.1141 349.188 53.714C348.947 53.313 348.825 52.8624 348.825 52.3616C348.825 51.8617 348.947 51.4112 349.188 51.0101C349.43 50.6091 349.765 50.295 350.193 50.0661C350.62 49.8381 351.099 49.7236 351.633 49.7236C352.165 49.7236 352.644 49.8381 353.069 50.0661C353.493 50.295 353.829 50.6091 354.073 51.0101C354.317 51.4112 354.439 51.8616 354.439 52.3616C354.439 52.8624 354.317 53.313 354.073 53.714C353.829 54.1142 353.493 54.4291 353.069 54.6571C352.644 54.886 352.165 55.0004 351.633 55.0004ZM351.633 53.9942C351.936 53.9942 352.209 53.9255 352.453 53.7863C352.698 53.6481 352.889 53.4549 353.028 53.2076C353.167 52.9595 353.237 52.6775 353.237 52.3616C353.237 52.0457 353.167 51.7646 353.028 51.5165C352.889 51.2692 352.698 51.076 352.453 50.9369C352.209 50.7986 351.936 50.7299 351.633 50.7299C351.33 50.7299 351.056 50.7986 350.811 50.9369C350.567 51.076 350.376 51.2692 350.237 51.5165C350.097 51.7646 350.028 52.0457 350.028 52.3616C350.028 52.6775 350.097 52.9595 350.237 53.2076C350.376 53.4549 350.567 53.6481 350.811 53.7863C351.056 53.9255 351.33 53.9942 351.633 53.9942ZM356.789 55.0004C356.384 55.0004 355.992 54.9455 355.613 54.8356C355.234 54.7267 354.93 54.5848 354.701 54.4098L355.104 53.5208C355.323 53.681 355.584 53.8101 355.888 53.9072C356.191 54.0043 356.494 54.0528 356.797 54.0528C357.134 54.0528 357.383 54.0024 357.544 53.9035C357.705 53.8037 357.786 53.671 357.786 53.5061C357.786 53.3844 357.738 53.2837 357.642 53.204C357.547 53.1235 357.425 53.0593 357.277 53.0108C357.128 52.9623 356.927 52.9083 356.672 52.8506C356.281 52.7581 355.961 52.6656 355.712 52.5731C355.463 52.4807 355.248 52.3332 355.07 52.1291C354.893 51.9249 354.803 51.653 354.803 51.3124C354.803 51.0166 354.884 50.7474 355.045 50.5075C355.206 50.2667 355.449 50.0762 355.774 49.9352C356.099 49.7943 356.496 49.7237 356.965 49.7237C357.293 49.7237 357.612 49.7631 357.925 49.841C358.237 49.9179 358.512 50.0296 358.746 50.1761L358.379 51.0725C357.906 50.8052 357.431 50.6715 356.958 50.6715C356.625 50.6715 356.38 50.7246 356.221 50.8317C356.063 50.9389 355.983 51.0798 355.983 51.2547C355.983 51.4296 356.075 51.5596 356.258 51.6438C356.441 51.729 356.721 51.8132 357.097 51.8957C357.488 51.9881 357.807 52.0806 358.057 52.1721C358.307 52.2646 358.52 52.4102 358.698 52.6098C358.877 52.8095 358.966 53.0786 358.966 53.4183C358.966 53.7104 358.884 53.9759 358.72 54.2168C358.557 54.4576 358.311 54.6481 357.983 54.789C357.656 54.9301 357.259 55.0005 356.789 55.0005L356.789 55.0004Z" fill="white"/>
</g>
<defs>
<clipPath id="clip0_26_154">
<rect width="359" height="55" fill="white"/>
</clipPath>
</defs>
</svg>
