<svg width="97" height="97" viewBox="0 0 97 97" fill="none" xmlns="http://www.w3.org/2000/svg">
<path d="M72.4469 3.03125H24.5531C18.8481 3.04087 13.3795 5.31143 9.34548 9.34548C5.31143 13.3795 3.04087 18.8481 3.03125 24.5531V72.4469C3.04087 78.1519 5.31143 83.6205 9.34548 87.6545C13.3795 91.6886 18.8481 93.9591 24.5531 93.9688H72.4469C78.1519 93.9591 83.6205 91.6886 87.6545 87.6545C91.6886 83.6205 93.9591 78.1519 93.9688 72.4469V24.5531C93.9591 18.8481 91.6886 13.3795 87.6545 9.34548C83.6205 5.31143 78.1519 3.04087 72.4469 3.03125ZM65.8842 55.6628L45.2202 69.4399C43.9238 70.3074 42.4161 70.8064 40.8581 70.8833C39.3001 70.9602 37.7506 70.6122 36.3751 69.8765C34.9996 69.1408 33.8499 68.0451 33.0491 66.7065C32.2482 65.368 31.8261 63.8369 31.8281 62.277V34.723C31.8276 33.165 32.25 31.6362 33.0503 30.2995C33.8506 28.9628 34.9987 27.8685 36.3722 27.1332C37.7457 26.3979 39.2931 26.0492 40.8492 26.1244C42.4053 26.1996 43.9119 26.6958 45.2081 27.5601L65.8751 41.3372C67.0543 42.1233 68.0212 43.1884 68.6899 44.4379C69.3586 45.6875 69.7085 47.0828 69.7085 48.5C69.7085 49.9172 69.3586 51.3125 68.6899 52.5621C68.0212 53.8116 67.0543 54.8767 65.8751 55.6628H65.8842Z" fill="#05A82C"/>
</svg>
